<svg width="18" height="18" viewBox="0 0 18 18" fill="none" xmlns="http://www.w3.org/2000/svg">
<g clip-path="url(#clip0_25_312)">
<path d="M17.8819 5.2309C17.8819 3.64887 16.7182 2.37621 15.2803 2.37621C13.3327 2.28516 11.3463 2.25 9.31641 2.25H8.68359C6.65859 2.25 4.66875 2.28516 2.72109 2.37656C1.28672 2.37656 0.123047 3.65625 0.123047 5.23828C0.0351564 6.48949 -0.00210921 7.74105 1.64902e-07 8.99262C-0.00351546 10.2442 0.0363283 11.4969 0.119531 12.7508C0.119531 14.3329 1.2832 15.6161 2.71758 15.6161C4.76367 15.711 6.8625 15.7532 8.99648 15.7496C11.134 15.7567 13.227 15.7121 15.2754 15.6161C16.7133 15.6161 17.877 14.3329 17.877 12.7508C17.9613 11.4957 18 10.2442 17.9965 8.9891C18.0045 7.73754 17.9662 6.4848 17.8819 5.2309ZM7.27734 12.4414V5.53324L12.375 8.98559L7.27734 12.4414Z" fill="#1B1B1B"/>
</g>
<defs>
<clipPath id="clip0_25_312">
<rect width="18" height="18" fill="white"/>
</clipPath>
</defs>
</svg>
