<svg width="30" height="30" viewBox="0 0 30 30" fill="none" xmlns="http://www.w3.org/2000/svg">
<g clip-path="url(#clip0_511_136)">
<path d="M26.375 18.5937L15.875 29.125C15.75 29.25 15.6146 29.3383 15.4687 29.39C15.3229 29.4425 15.1667 29.4687 15 29.4687C14.8333 29.4687 14.6771 29.4425 14.5312 29.39C14.3854 29.3383 14.25 29.25 14.125 29.125L3.59375 18.5937C3.30208 18.3021 3.15625 17.9375 3.15625 17.5C3.15625 17.0625 3.3125 16.6875 3.625 16.375C3.9375 16.0625 4.30208 15.9062 4.71875 15.9062C5.13542 15.9062 5.5 16.0625 5.8125 16.375L15 25.5625L24.1875 16.375C24.4792 16.0833 24.8383 15.9375 25.265 15.9375C25.6925 15.9375 26.0625 16.0937 26.375 16.4062C26.6875 16.7187 26.8437 17.0833 26.8437 17.5C26.8437 17.9167 26.6875 18.2812 26.375 18.5937Z" fill="#5228B6"/>
</g>
<defs>
<clipPath id="clip0_511_136">
<rect width="30" height="30" fill="white" transform="translate(0 30) rotate(-90)"/>
</clipPath>
</defs>
</svg>
