<svg width="16" height="16" viewBox="0 0 16 16" fill="none" xmlns="http://www.w3.org/2000/svg">
<path d="M7.49624 2.78269C7.65056 2.33874 7.72771 2.11677 7.84181 2.05525C7.94056 2.00201 8.05946 2.00201 8.15821 2.05525C8.2723 2.11677 8.34946 2.33874 8.50377 2.78269L9.52396 5.71761C9.56787 5.84397 9.58983 5.90714 9.62941 5.95419C9.66436 5.99575 9.70894 6.02814 9.75927 6.04854C9.81625 6.07164 9.88312 6.073 10.0169 6.07573L13.1234 6.13903C13.5933 6.14861 13.8282 6.1534 13.922 6.2429C14.0032 6.32036 14.0399 6.43344 14.0198 6.54381C13.9965 6.67133 13.8093 6.81331 13.4347 7.09726L10.9587 8.97445C10.8521 9.05526 10.7988 9.09567 10.7663 9.14784C10.7376 9.19393 10.7205 9.24634 10.7167 9.30051C10.7123 9.36183 10.7317 9.42585 10.7704 9.55389L11.6702 12.5279C11.8063 12.9778 11.8744 13.2027 11.8182 13.3196C11.7696 13.4207 11.6734 13.4906 11.5622 13.5055C11.4338 13.5228 11.2409 13.3886 10.8551 13.1202L8.30464 11.3454C8.19484 11.269 8.13994 11.2308 8.08027 11.216C8.02756 11.2029 7.97245 11.2029 7.91975 11.216C7.86008 11.2308 7.80518 11.269 7.69538 11.3454L5.14493 13.1202C4.75914 13.3886 4.56625 13.5228 4.43778 13.5055C4.3266 13.4906 4.2304 13.4207 4.18181 13.3196C4.12567 13.2027 4.19372 12.9778 4.32982 12.5279L5.22958 9.55389C5.26832 9.42585 5.28768 9.36183 5.28332 9.30051C5.27947 9.24634 5.26244 9.19393 5.23372 9.14784C5.2012 9.09567 5.1479 9.05526 5.04131 8.97445L2.56528 7.09726C2.19075 6.81331 2.00349 6.67133 1.98023 6.54381C1.96011 6.43344 1.99686 6.32036 2.07801 6.2429C2.17177 6.1534 2.40672 6.14861 2.87663 6.13903L5.98316 6.07573C6.1169 6.073 6.18377 6.07164 6.24074 6.04854C6.29107 6.02814 6.33565 5.99575 6.37061 5.95419C6.41018 5.90714 6.43214 5.84397 6.47606 5.71761L7.49624 2.78269Z" fill="#EBE100" stroke="#EBE100" stroke-width="1.33333" stroke-linecap="round" stroke-linejoin="round"/>
</svg>
